<svg width="1440" height="662" viewBox="0 0 1440 662" fill="none" xmlns="http://www.w3.org/2000/svg">
<g clip-path="url(#clip0_16449_384)">
<g filter="url(#filter0_f_16449_384)">
<ellipse cx="898.624" cy="689.792" rx="592.5" ry="327" transform="rotate(-6.48121 898.624 689.792)" fill="#8349FF"/>
</g>
<g filter="url(#filter1_f_16449_384)">
<path d="M1314.79 660.864C1368.76 620.109 1371.84 589.002 1398.77 541.228C1450.75 449.008 1412.47 388.446 1474.25 297.96C1600.32 113.329 1818.33 694.511 1508.25 800.75C1313.32 867.534 742.936 883.545 914.886 800.75C983.557 767.684 1049.28 771.175 1126.84 744.262C1206.87 716.488 1259.72 702.454 1314.79 660.864Z" fill="url(#paint0_linear_16449_384)"/>
</g>
<g filter="url(#filter2_f_16449_384)">
<path d="M231.881 540.948C90.0739 550.278 -2.47822 602.622 -92.5007 724.409C-274.87 971.126 790.639 1049.5 642.249 778.453C548.686 607.554 413.013 529.031 231.881 540.948Z" fill="#0013FF"/>
</g>
<g filter="url(#filter3_f_16449_384)">
<path d="M405.062 734.273C287.153 742.03 210.198 785.553 135.347 886.816C-16.2885 1091.96 869.657 1157.12 746.274 931.753C668.479 789.654 555.669 724.364 405.062 734.273Z" fill="#00FFFF"/>
</g>
</g>
<path fill-rule="evenodd" clip-rule="evenodd" d="M1296.13 816.064H1439.5V672.628H1310.98L1296.13 687.488V816.064ZM1280.88 672.628L1295.54 687.296V816.064H1152.17V672.628H1280.88ZM1295.54 657.59L1281.09 672.04H1152.17V528.603H1295.54V657.59ZM1310.76 672.04L1296.13 657.398V528.603H1439.5V672.04H1310.76ZM1440 816.568V672.544V672.124V528.52V528.099V384.495V384.075V240.47V240.051V96.4458V96.026V-47.9986H1296.04H1295.62H1152.08H1151.66H1008.13H1007.71L864.168 -47.9986H863.748H720.21H719.79H576.252H575.833H432.294H431.874H288.336H287.916H144.378H143.959L0.000488281 -47.9986L0 96.026V240.051V240.47V384.495V528.099V672.124V672.544V816.568L143.959 816.568H144.378H287.916H288.336H431.874H432.294H575.833H576.252H719.79H720.21H863.748H864.168L1007.71 816.568H1008.13H1151.66H1152.08H1295.62H1296.04H1440ZM1151.58 816.064H1008.21V672.628H1151.58V816.064ZM864.252 816.064L1007.62 816.064V672.628H864.252V816.064ZM863.664 816.064H720.294V672.628L863.664 672.628V816.064ZM576.336 816.064H719.707V672.628H576.336V816.064ZM575.748 816.064H432.378V672.628H575.748V816.064ZM288.42 816.064H431.79V672.628H288.42V816.064ZM287.833 816.064H144.462V672.628L287.833 672.628V816.064ZM0.503662 816.064L143.874 816.064V672.628H0.503662V816.064ZM1151.58 672.04H1008.21V528.603H1151.58V672.04ZM864.252 672.04H1007.62V528.603H878.673L864.252 543.031V672.04ZM849.474 528.603L863.664 542.8V672.04L720.294 672.04V528.603L849.474 528.603ZM863.664 513.133L848.838 527.967L848.887 528.016L720.294 528.016V384.579L863.664 384.579V513.133ZM879.26 528.016L879.309 527.967L864.252 512.902V384.579H1007.62V528.016H879.26ZM576.336 672.04H719.707V528.603H576.336V672.04ZM575.748 672.04H432.378V528.603H575.748V672.04ZM288.42 672.04H431.79V528.603H288.42V672.04ZM287.833 672.04L144.462 672.04V568.397L144.705 568.154L184.238 528.603L287.833 528.603V672.04ZM184.825 528.016L287.832 528.016V398.71L287.351 399.192L272.745 384.579H144.462V487.536L144.705 487.779L184.485 527.577L184.874 527.967L184.825 528.016ZM144.462 488.314L184.096 527.967L184.047 528.016H159.503L159.552 527.967L144.462 512.869V488.314ZM143.875 487.832V384.579H0.50415V528.016H103.808L103.759 527.967L104.148 527.577L143.875 487.832ZM104.586 528.016L104.537 527.967L143.875 488.611V513.166L129.08 527.967L129.13 528.016H104.586ZM104.395 528.603H0.503662V672.04H143.874V568.1L104.395 528.603ZM143.874 567.322L105.173 528.603H129.717L143.874 542.767V567.322ZM144.462 567.619L183.46 528.603H158.916L144.462 543.064V567.619ZM287.833 369.188L287.351 368.706L272.115 383.949L272.157 383.991H144.462V240.554H287.833V369.188ZM302.544 383.991L302.587 383.949L288.42 369.775V240.554H431.79L431.79 383.991H302.544ZM288.42 398.122L301.957 384.579H431.79V528.016H288.42V398.122ZM1439.5 528.016H1296.13V384.579H1439.5V528.016ZM1152.17 528.016H1295.54V384.579L1152.17 384.579V528.016ZM1151.58 528.016H1008.21V384.579H1151.58V528.016ZM576.336 528.016H719.706V384.579H576.336V528.016ZM575.748 528.016H432.378V384.579H575.748V528.016ZM1439.5 383.991H1296.13V240.554H1439.5V383.991ZM1152.17 383.991L1295.54 383.991V240.554H1191.78L1191.97 240.741L1191.58 241.13L1152.17 280.56V383.991ZM1152.17 279.782L1191.19 240.741L1191 240.554H1166.46L1166.65 240.741L1152.17 255.226V279.782ZM1151.58 255.814V280.369L1151.41 280.539L1111.63 240.741L1111.82 240.554H1136.36L1136.17 240.741L1151.41 255.984L1151.58 255.814ZM1151.58 225.668L1151.41 225.498L1136.95 239.966H1112.41L1151.41 200.943L1151.58 201.113V225.668ZM1165.87 239.966L1152.17 226.256V201.7L1190.42 239.966H1165.87ZM1191.19 239.966H1295.54V96.5299H1152.17V200.922L1191.19 239.966ZM1151.58 200.335V96.5299H1008.21L1008.21 239.966H1111.63L1151.02 200.554L1151.41 200.165L1151.58 200.335ZM1111.04 240.554H1008.21V383.991H1151.58V281.147L1151.41 281.317L1151.02 280.928L1111.24 241.13L1110.85 240.741L1111.04 240.554ZM864.252 383.991H1007.62V240.554L864.252 240.554L864.252 383.991ZM863.664 383.991L720.294 383.991L720.294 240.554H863.664L863.664 383.991ZM576.336 383.991H719.707L719.707 240.554H576.336L576.336 383.991ZM575.748 383.991H432.378L432.378 240.554H575.748L575.748 383.991ZM0.503662 383.991H143.874V240.554L0.503662 240.554V383.991ZM1439.5 239.966H1296.13V96.5299H1439.5V239.966ZM864.252 239.966L1007.62 239.966L1007.62 96.5299L864.252 96.5299V239.966ZM863.664 239.966H720.294V96.5299H863.664V239.966ZM576.336 239.966H719.707V96.5299H576.336V239.966ZM575.748 239.966H432.378V96.5299H575.748V239.966ZM288.42 239.966H431.79V96.5299H288.42V239.966ZM287.833 239.966H144.462V96.5299H287.833V239.966ZM0.503662 239.966L143.874 239.966V96.5299L0.503662 96.5299V239.966ZM1439.5 95.9419H1296.13V-47.4948H1439.5V95.9419ZM1152.17 95.9419H1295.54V-47.4948H1152.17V95.9419ZM1151.58 95.9419H1008.21V-47.4948H1151.58V95.9419ZM864.252 95.9419L1007.62 95.9419V-47.4948L864.252 -47.4948V95.9419ZM863.664 95.9419H720.294V-47.4948H863.664V95.9419ZM576.336 95.9419H719.707V-47.4948H576.336V95.9419ZM575.748 95.9419H432.378V-47.4948H575.748V95.9419ZM288.42 95.9419H431.79V-47.4948H288.42V95.9419ZM287.833 95.9419H144.462V-47.4948H287.833V95.9419ZM0.50415 95.9419L143.875 95.9419V-47.4948L0.50415 -47.4948V95.9419Z" fill="url(#paint1_radial_16449_384)" fill-opacity="0.4"/>
<defs>
<filter id="filter0_f_16449_384" x="8.73474" y="58.0039" width="1779.78" height="1263.58" filterUnits="userSpaceOnUse" color-interpolation-filters="sRGB">
<feFlood flood-opacity="0" result="BackgroundImageFix"/>
<feBlend mode="normal" in="SourceGraphic" in2="BackgroundImageFix" result="shape"/>
<feGaussianBlur stdDeviation="150" result="effect1_foregroundBlur_16449_384"/>
</filter>
<filter id="filter1_f_16449_384" x="633" y="12.002" width="1284" height="1095" filterUnits="userSpaceOnUse" color-interpolation-filters="sRGB">
<feFlood flood-opacity="0" result="BackgroundImageFix"/>
<feBlend mode="normal" in="SourceGraphic" in2="BackgroundImageFix" result="shape"/>
<feGaussianBlur stdDeviation="125" result="effect1_foregroundBlur_16449_384"/>
</filter>
<filter id="filter2_f_16449_384" x="-413.572" y="239.771" width="1370.05" height="1008.95" filterUnits="userSpaceOnUse" color-interpolation-filters="sRGB">
<feFlood flood-opacity="0" result="BackgroundImageFix"/>
<feBlend mode="normal" in="SourceGraphic" in2="BackgroundImageFix" result="shape"/>
<feGaussianBlur stdDeviation="150" result="effect1_foregroundBlur_16449_384"/>
</filter>
<filter id="filter3_f_16449_384" x="-82.1735" y="533.294" width="1040.28" height="740.033" filterUnits="userSpaceOnUse" color-interpolation-filters="sRGB">
<feFlood flood-opacity="0" result="BackgroundImageFix"/>
<feBlend mode="normal" in="SourceGraphic" in2="BackgroundImageFix" result="shape"/>
<feGaussianBlur stdDeviation="100" result="effect1_foregroundBlur_16449_384"/>
</filter>
<linearGradient id="paint0_linear_16449_384" x1="1421.27" y1="467.155" x2="1360.7" y2="796.521" gradientUnits="userSpaceOnUse">
<stop stop-color="#FF0095"/>
<stop offset="1" stop-color="#FFCDFF"/>
</linearGradient>
<radialGradient id="paint1_radial_16449_384" cx="0" cy="0" r="1" gradientUnits="userSpaceOnUse" gradientTransform="translate(720 1301.83) rotate(-90) scale(1240.89 2066.8)">
<stop stop-color="white"/>
<stop offset="1" stop-color="white" stop-opacity="0"/>
</radialGradient>
<clipPath id="clip0_16449_384">
<rect width="1440" height="1024" fill="white" transform="translate(0 -190.998)"/>
</clipPath>
</defs>
</svg>
