<svg width="1440" height="1024" viewBox="0 0 1440 1024" fill="none" xmlns="http://www.w3.org/2000/svg">
<g clip-path="url(#clip0_16418_1282)">
<g filter="url(#filter0_f_16418_1282)">
<ellipse cx="898.624" cy="880.79" rx="592.5" ry="327" transform="rotate(-6.48121 898.624 880.79)" fill="#8349FF"/>
</g>
<g filter="url(#filter1_f_16418_1282)">
<path d="M1314.79 851.862C1368.76 811.107 1371.84 780 1398.77 732.226C1450.75 640.006 1412.47 579.444 1474.25 488.958C1600.32 304.327 1818.33 885.509 1508.25 991.748C1313.32 1058.53 742.936 1074.54 914.886 991.748C983.557 958.682 1049.28 962.173 1126.84 935.26C1206.87 907.486 1259.72 893.452 1314.79 851.862Z" fill="url(#paint0_linear_16418_1282)"/>
</g>
<g filter="url(#filter2_f_16418_1282)">
<path d="M231.881 731.946C90.0738 741.276 -2.47822 793.621 -92.5007 915.407C-274.87 1162.12 790.639 1240.5 642.249 969.452C548.686 798.552 413.013 720.029 231.881 731.946Z" fill="#0013FF"/>
</g>
<g filter="url(#filter3_f_16418_1282)">
<path d="M405.062 925.271C287.153 933.028 210.198 976.551 135.347 1077.81C-16.2885 1282.95 869.657 1348.12 746.274 1122.75C668.479 980.652 555.669 915.362 405.062 925.271Z" fill="#00FFFF"/>
</g>
</g>
<defs>
<filter id="filter0_f_16418_1282" x="8.73474" y="249.002" width="1779.78" height="1263.58" filterUnits="userSpaceOnUse" color-interpolation-filters="sRGB">
<feFlood flood-opacity="0" result="BackgroundImageFix"/>
<feBlend mode="normal" in="SourceGraphic" in2="BackgroundImageFix" result="shape"/>
<feGaussianBlur stdDeviation="150" result="effect1_foregroundBlur_16418_1282"/>
</filter>
<filter id="filter1_f_16418_1282" x="633" y="203" width="1284" height="1095" filterUnits="userSpaceOnUse" color-interpolation-filters="sRGB">
<feFlood flood-opacity="0" result="BackgroundImageFix"/>
<feBlend mode="normal" in="SourceGraphic" in2="BackgroundImageFix" result="shape"/>
<feGaussianBlur stdDeviation="125" result="effect1_foregroundBlur_16418_1282"/>
</filter>
<filter id="filter2_f_16418_1282" x="-413.572" y="430.769" width="1370.05" height="1008.95" filterUnits="userSpaceOnUse" color-interpolation-filters="sRGB">
<feFlood flood-opacity="0" result="BackgroundImageFix"/>
<feBlend mode="normal" in="SourceGraphic" in2="BackgroundImageFix" result="shape"/>
<feGaussianBlur stdDeviation="150" result="effect1_foregroundBlur_16418_1282"/>
</filter>
<filter id="filter3_f_16418_1282" x="-82.1735" y="724.292" width="1040.28" height="740.033" filterUnits="userSpaceOnUse" color-interpolation-filters="sRGB">
<feFlood flood-opacity="0" result="BackgroundImageFix"/>
<feBlend mode="normal" in="SourceGraphic" in2="BackgroundImageFix" result="shape"/>
<feGaussianBlur stdDeviation="100" result="effect1_foregroundBlur_16418_1282"/>
</filter>
<linearGradient id="paint0_linear_16418_1282" x1="1421.27" y1="658.153" x2="1360.7" y2="987.519" gradientUnits="userSpaceOnUse">
<stop stop-color="#FF0095"/>
<stop offset="1" stop-color="#FFCDFF"/>
</linearGradient>
<clipPath id="clip0_16418_1282">
<rect width="1440" height="1024" fill="white"/>
</clipPath>
</defs>
</svg>
