<svg width="1440" height="1024" viewBox="0 0 1440 1024" fill="none" xmlns="http://www.w3.org/2000/svg">
<g clip-path="url(#clip0_16446_455)">
<g filter="url(#filter0_f_16446_455)">
<ellipse cx="898.624" cy="880.79" rx="592.5" ry="327" transform="rotate(-6.48121 898.624 880.79)" fill="#8349FF"/>
</g>
<g filter="url(#filter1_f_16446_455)">
<path d="M1314.79 851.862C1368.76 811.107 1371.84 780 1398.77 732.226C1450.75 640.006 1412.47 579.444 1474.25 488.958C1600.32 304.327 1818.33 885.509 1508.25 991.748C1313.32 1058.53 742.936 1074.54 914.886 991.748C983.557 958.682 1049.28 962.173 1126.84 935.26C1206.87 907.486 1259.72 893.452 1314.79 851.862Z" fill="url(#paint0_linear_16446_455)"/>
</g>
<g filter="url(#filter2_f_16446_455)">
<path d="M231.881 731.946C90.0738 741.276 -2.47822 793.621 -92.5007 915.407C-274.87 1162.12 790.639 1240.5 642.249 969.452C548.686 798.552 413.013 720.029 231.881 731.946Z" fill="#0013FF"/>
</g>
<g filter="url(#filter3_f_16446_455)">
<path d="M405.062 925.271C287.153 933.028 210.198 976.551 135.347 1077.81C-16.2885 1282.95 869.657 1348.12 746.274 1122.75C668.479 980.652 555.669 915.362 405.062 925.271Z" fill="#00FFFF"/>
</g>
</g>
<path fill-rule="evenodd" clip-rule="evenodd" d="M1296.13 1007.06H1439.5V863.626H1310.98L1296.13 878.487V1007.06ZM1280.88 863.626L1295.54 878.295V1007.06H1152.17V863.626H1280.88ZM1295.54 848.589L1281.09 863.038H1152.17V719.602H1295.54V848.589ZM1310.76 863.038L1296.13 848.397V719.602H1439.5V863.038H1310.76ZM1440 1007.57V863.542V863.123V719.518V719.098V575.494V575.074V431.469V431.049V287.444V287.025V143H1296.04H1295.62H1152.08H1151.66H1008.13H1007.71L864.168 143H863.748H720.21H719.79H576.252H575.833H432.294H431.874H288.336H287.916H144.378H143.959L0.000488281 143L0 287.025V431.049V431.469V575.494V719.098V863.123V863.542V1007.57L143.959 1007.57H144.378H287.916H288.336H431.874H432.294H575.833H576.252H719.79H720.21H863.748H864.168L1007.71 1007.57H1008.13H1151.66H1152.08H1295.62H1296.04H1440ZM1151.58 1007.06H1008.21V863.626H1151.58V1007.06ZM864.252 1007.06L1007.62 1007.06V863.626H864.252V1007.06ZM863.664 1007.06H720.294V863.626L863.664 863.626V1007.06ZM576.336 1007.06H719.707V863.626H576.336V1007.06ZM575.748 1007.06H432.378V863.626H575.748V1007.06ZM288.42 1007.06H431.79V863.626H288.42V1007.06ZM287.833 1007.06H144.462V863.626L287.833 863.626V1007.06ZM0.503662 1007.06L143.874 1007.06V863.626H0.503662V1007.06ZM1151.58 863.038H1008.21V719.602H1151.58V863.038ZM864.252 863.038H1007.62V719.602H878.673L864.252 734.03V863.038ZM849.474 719.602L863.664 733.799V863.038L720.294 863.038V719.602L849.474 719.602ZM863.664 704.132L848.838 718.965L848.887 719.014L720.294 719.014V575.578L863.664 575.578V704.132ZM879.26 719.014L879.309 718.965L864.252 703.901V575.578H1007.62V719.014H879.26ZM576.336 863.038H719.707V719.602H576.336V863.038ZM575.748 863.038H432.378V719.602H575.748V863.038ZM288.42 863.038H431.79V719.602H288.42V863.038ZM287.833 863.038L144.462 863.038V759.396L144.705 759.152L184.238 719.602L287.833 719.602V863.038ZM184.825 719.014L287.832 719.014V589.709L287.351 590.19L272.745 575.578H144.462V678.534L144.705 678.778L184.485 718.576L184.874 718.965L184.825 719.014ZM144.462 679.312L184.096 718.965L184.047 719.014H159.503L159.552 718.965L144.462 703.868V679.312ZM143.875 678.831V575.578H0.50415V719.014H103.808L103.759 718.965L104.148 718.576L143.875 678.831ZM104.586 719.014L104.537 718.965L143.875 679.609V704.164L129.08 718.965L129.13 719.014H104.586ZM104.395 719.602H0.503662V863.038H143.874V759.099L104.395 719.602ZM143.874 758.321L105.173 719.602H129.717L143.874 733.766V758.321ZM144.462 758.617L183.46 719.602H158.916L144.462 734.062V758.617ZM287.833 560.186L287.351 559.704L272.115 574.947L272.157 574.99H144.462V431.553H287.833V560.186ZM302.544 574.99L302.587 574.947L288.42 560.774V431.553H431.79L431.79 574.99H302.544ZM288.42 589.121L301.957 575.578H431.79V719.014H288.42V589.121ZM1439.5 719.014H1296.13V575.578H1439.5V719.014ZM1152.17 719.014H1295.54V575.578H1152.17V719.014ZM1151.58 719.014H1008.21V575.578H1151.58V719.014ZM576.336 719.014H719.706V575.578H576.336V719.014ZM575.748 719.014H432.378V575.578H575.748V719.014ZM1439.5 574.99H1296.13V431.553H1439.5V574.99ZM1152.17 574.99H1295.54V431.553H1191.78L1191.97 431.74L1191.58 432.129L1152.17 471.559V574.99ZM1152.17 470.78L1191.19 431.74L1191 431.553H1166.46L1166.65 431.74L1152.17 446.225V470.78ZM1151.58 446.812V471.368L1151.41 471.538L1111.63 431.74L1111.82 431.553H1136.36L1136.17 431.74L1151.41 446.983L1151.58 446.812ZM1151.58 416.667L1151.41 416.497L1136.95 430.965H1112.41L1151.41 391.942L1151.58 392.112V416.667ZM1165.87 430.965L1152.17 417.254V392.699L1190.42 430.965H1165.87ZM1191.19 430.965H1295.54V287.529H1152.17V391.921L1191.19 430.965ZM1151.58 391.333V287.529H1008.21L1008.21 430.965H1111.63L1151.02 391.552L1151.41 391.163L1151.58 391.333ZM1111.04 431.553H1008.21V574.99H1151.58V472.146L1151.41 472.316L1151.02 471.927L1111.24 432.129L1110.85 431.74L1111.04 431.553ZM864.252 574.99H1007.62V431.553L864.252 431.553L864.252 574.99ZM863.664 574.99L720.294 574.99L720.294 431.553H863.664L863.664 574.99ZM576.336 574.99H719.707L719.707 431.553H576.336L576.336 574.99ZM575.748 574.99H432.378L432.378 431.553H575.748L575.748 574.99ZM0.503662 574.99H143.874V431.553L0.503662 431.553V574.99ZM1439.5 430.965H1296.13V287.529H1439.5V430.965ZM864.252 430.965L1007.62 430.965L1007.62 287.529L864.252 287.529V430.965ZM863.664 430.965H720.294V287.529H863.664V430.965ZM576.336 430.965H719.707V287.529H576.336V430.965ZM575.748 430.965H432.378V287.529H575.748V430.965ZM288.42 430.965H431.79V287.529H288.42V430.965ZM287.833 430.965H144.462V287.529H287.833V430.965ZM0.503662 430.965L143.874 430.965V287.529L0.503662 287.529V430.965ZM1439.5 286.94H1296.13V143.504H1439.5V286.94ZM1152.17 286.94H1295.54V143.504H1152.17V286.94ZM1151.58 286.94H1008.21V143.504H1151.58V286.94ZM864.252 286.94L1007.62 286.94V143.504L864.252 143.504V286.94ZM863.664 286.94H720.294V143.504H863.664V286.94ZM576.336 286.94H719.707V143.504H576.336V286.94ZM575.748 286.94H432.378V143.504H575.748V286.94ZM288.42 286.94H431.79V143.504H288.42V286.94ZM287.833 286.94H144.462V143.504H287.833V286.94ZM0.50415 286.94L143.875 286.94V143.504L0.50415 143.504V286.94Z" fill="url(#paint1_radial_16446_455)" fill-opacity="0.6"/>
<defs>
<filter id="filter0_f_16446_455" x="8.73474" y="249.002" width="1779.78" height="1263.58" filterUnits="userSpaceOnUse" color-interpolation-filters="sRGB">
<feFlood flood-opacity="0" result="BackgroundImageFix"/>
<feBlend mode="normal" in="SourceGraphic" in2="BackgroundImageFix" result="shape"/>
<feGaussianBlur stdDeviation="150" result="effect1_foregroundBlur_16446_455"/>
</filter>
<filter id="filter1_f_16446_455" x="633" y="203" width="1284" height="1095" filterUnits="userSpaceOnUse" color-interpolation-filters="sRGB">
<feFlood flood-opacity="0" result="BackgroundImageFix"/>
<feBlend mode="normal" in="SourceGraphic" in2="BackgroundImageFix" result="shape"/>
<feGaussianBlur stdDeviation="125" result="effect1_foregroundBlur_16446_455"/>
</filter>
<filter id="filter2_f_16446_455" x="-413.572" y="430.769" width="1370.05" height="1008.95" filterUnits="userSpaceOnUse" color-interpolation-filters="sRGB">
<feFlood flood-opacity="0" result="BackgroundImageFix"/>
<feBlend mode="normal" in="SourceGraphic" in2="BackgroundImageFix" result="shape"/>
<feGaussianBlur stdDeviation="150" result="effect1_foregroundBlur_16446_455"/>
</filter>
<filter id="filter3_f_16446_455" x="-82.1735" y="724.292" width="1040.28" height="740.033" filterUnits="userSpaceOnUse" color-interpolation-filters="sRGB">
<feFlood flood-opacity="0" result="BackgroundImageFix"/>
<feBlend mode="normal" in="SourceGraphic" in2="BackgroundImageFix" result="shape"/>
<feGaussianBlur stdDeviation="100" result="effect1_foregroundBlur_16446_455"/>
</filter>
<linearGradient id="paint0_linear_16446_455" x1="1421.27" y1="658.153" x2="1360.7" y2="987.519" gradientUnits="userSpaceOnUse">
<stop stop-color="#FF0095"/>
<stop offset="1" stop-color="#FFCDFF"/>
</linearGradient>
<radialGradient id="paint1_radial_16446_455" cx="0" cy="0" r="1" gradientUnits="userSpaceOnUse" gradientTransform="translate(720 1492.82) rotate(-90) scale(1240.89 2066.8)">
<stop stop-color="white"/>
<stop offset="1" stop-color="white" stop-opacity="0"/>
</radialGradient>
<clipPath id="clip0_16446_455">
<rect width="1440" height="1024" fill="white"/>
</clipPath>
</defs>
</svg>
