<svg width="1440" height="865" viewBox="0 0 1440 865" fill="none" xmlns="http://www.w3.org/2000/svg">
<path fill-rule="evenodd" clip-rule="evenodd" d="M1296.13 864.063H1439.5V720.626H1310.98L1296.13 735.487V864.063ZM1280.88 720.626L1295.54 735.295V864.063H1152.17V720.626H1280.88ZM1295.54 705.589L1281.09 720.038H1152.17V576.602H1295.54V705.589ZM1310.76 720.038L1296.13 705.397V576.602H1439.5V720.038H1310.76ZM1440 864.567V720.542V720.123V576.518V576.098V432.494V432.074V288.469V288.049V144.444V144.025V0H1296.04H1295.62H1152.08H1151.66H1008.13H1007.71L864.168 0H863.748H720.21H719.79H576.252H575.833H432.294H431.874H288.336H287.916H144.378H143.959L0.000488281 0L0 144.025V288.049V288.469V432.494V576.098V720.123V720.542V864.567L143.959 864.567H144.378H287.916H288.336H431.874H432.294H575.833H576.252H719.79H720.21H863.748H864.168L1007.71 864.567H1008.13H1151.66H1152.08H1295.62H1296.04H1440ZM1151.58 864.063H1008.21V720.626H1151.58V864.063ZM864.252 864.063L1007.62 864.063V720.626H864.252V864.063ZM863.664 864.063H720.294V720.626L863.664 720.626V864.063ZM576.336 864.063H719.707V720.626H576.336V864.063ZM575.748 864.063H432.378V720.626H575.748V864.063ZM288.42 864.063H431.79V720.626H288.42V864.063ZM287.833 864.063H144.462V720.626L287.833 720.626V864.063ZM0.503662 864.063L143.874 864.063V720.626H0.503662V864.063ZM1151.58 720.038H1008.21V576.602H1151.58V720.038ZM864.252 720.038H1007.62V576.602H878.673L864.252 591.03V720.038ZM849.474 576.602L863.664 590.799V720.038L720.294 720.038V576.602L849.474 576.602ZM863.664 561.132L848.838 575.965L848.887 576.014L720.294 576.014V432.578L863.664 432.578V561.132ZM879.26 576.014L879.309 575.965L864.252 560.901V432.578H1007.62V576.014H879.26ZM576.336 720.038H719.707V576.602H576.336V720.038ZM575.748 720.038H432.378V576.602H575.748V720.038ZM288.42 720.038H431.79V576.602H288.42V720.038ZM287.833 720.038L144.462 720.038V616.396L144.705 616.152L184.238 576.602L287.833 576.602V720.038ZM184.825 576.014L287.832 576.014V446.709L287.351 447.19L272.745 432.578H144.462V535.534L144.705 535.778L184.485 575.576L184.874 575.965L184.825 576.014ZM144.462 536.312L184.096 575.965L184.047 576.014H159.503L159.552 575.965L144.462 560.868V536.312ZM143.875 535.831V432.578H0.50415V576.014H103.808L103.759 575.965L104.148 575.576L143.875 535.831ZM104.586 576.014L104.537 575.965L143.875 536.609V561.164L129.08 575.965L129.13 576.014H104.586ZM104.395 576.602H0.503662V720.038H143.874V616.099L104.395 576.602ZM143.874 615.321L105.173 576.602H129.717L143.874 590.766V615.321ZM144.462 615.617L183.46 576.602H158.916L144.462 591.062V615.617ZM287.833 417.186L287.351 416.704L272.115 431.947L272.157 431.99H144.462V288.553H287.833V417.186ZM302.544 431.99L302.587 431.947L288.42 417.774V288.553H431.79L431.79 431.99H302.544ZM288.42 446.121L301.957 432.578H431.79V576.014H288.42V446.121ZM1439.5 576.014H1296.13V432.578H1439.5V576.014ZM1152.17 576.014H1295.54V432.578L1152.17 432.578V576.014ZM1151.58 576.014H1008.21V432.578H1151.58V576.014ZM576.336 576.014H719.706V432.578H576.336V576.014ZM575.748 576.014H432.378V432.578H575.748V576.014ZM1439.5 431.99H1296.13V288.553H1439.5V431.99ZM1152.17 431.99L1295.54 431.99V288.553H1191.78L1191.97 288.74L1191.58 289.129L1152.17 328.559V431.99ZM1152.17 327.78L1191.19 288.74L1191 288.553H1166.46L1166.65 288.74L1152.17 303.225V327.78ZM1151.58 303.812V328.368L1151.41 328.538L1111.63 288.74L1111.82 288.553H1136.36L1136.17 288.74L1151.41 303.983L1151.58 303.812ZM1151.58 273.667L1151.41 273.497L1136.95 287.965H1112.41L1151.41 248.942L1151.58 249.112V273.667ZM1165.87 287.965L1152.17 274.254V249.699L1190.42 287.965H1165.87ZM1191.19 287.965H1295.54V144.529H1152.17V248.921L1191.19 287.965ZM1151.58 248.333V144.529H1008.21L1008.21 287.965H1111.63L1151.02 248.552L1151.41 248.163L1151.58 248.333ZM1111.04 288.553H1008.21V431.99H1151.58V329.146L1151.41 329.316L1151.02 328.927L1111.24 289.129L1110.85 288.74L1111.04 288.553ZM864.252 431.99H1007.62V288.553L864.252 288.553L864.252 431.99ZM863.664 431.99L720.294 431.99L720.294 288.553H863.664L863.664 431.99ZM576.336 431.99H719.707L719.707 288.553H576.336L576.336 431.99ZM575.748 431.99H432.378L432.378 288.553H575.748L575.748 431.99ZM0.503662 431.99H143.874V288.553L0.503662 288.553V431.99ZM1439.5 287.965H1296.13V144.529H1439.5V287.965ZM864.252 287.965L1007.62 287.965L1007.62 144.529L864.252 144.529V287.965ZM863.664 287.965H720.294V144.529H863.664V287.965ZM576.336 287.965H719.707V144.529H576.336V287.965ZM575.748 287.965H432.378V144.529H575.748V287.965ZM288.42 287.965H431.79V144.529H288.42V287.965ZM287.833 287.965H144.462V144.529H287.833V287.965ZM0.503662 287.965L143.874 287.965V144.529L0.503662 144.529V287.965ZM1439.5 143.94H1296.13V0.503845H1439.5V143.94ZM1152.17 143.94H1295.54V0.503845H1152.17V143.94ZM1151.58 143.94H1008.21V0.503845H1151.58V143.94ZM864.252 143.94L1007.62 143.94V0.503845L864.252 0.503845V143.94ZM863.664 143.94H720.294V0.503845H863.664V143.94ZM576.336 143.94H719.707V0.503845H576.336V143.94ZM575.748 143.94H432.378V0.503845H575.748V143.94ZM288.42 143.94H431.79V0.503845H288.42V143.94ZM287.833 143.94H144.462V0.503845H287.833V143.94ZM0.50415 143.94L143.875 143.94V0.503845L0.50415 0.503845V143.94Z" fill="url(#paint0_radial_16420_1510)" fill-opacity="0.6"/>
<defs>
<radialGradient id="paint0_radial_16420_1510" cx="0" cy="0" r="1" gradientUnits="userSpaceOnUse" gradientTransform="translate(720 1349.82) rotate(-90) scale(1240.89 2066.8)">
<stop stop-color="white"/>
<stop offset="1" stop-color="white" stop-opacity="0"/>
</radialGradient>
</defs>
</svg>
