<svg width="64" height="64" viewBox="0 0 64 64" fill="none" xmlns="http://www.w3.org/2000/svg">
<path d="M0 32C0 14.3269 14.3269 0 32 0C49.6731 0 64 14.3269 64 32C64 49.6731 49.6731 64 32 64C14.3269 64 0 49.6731 0 32Z" fill="#8B32FF"/>
<path d="M40.8001 30.4H32.8001M40.8001 36.8H32.8001M40.8001 24H32.8001M27.2001 17.6L27.2001 46.4M25.2801 17.6H38.7201C41.4084 17.6 42.7525 17.6 43.7793 18.1231C44.6824 18.5833 45.4167 19.3176 45.8769 20.2208C46.4001 21.2476 46.4001 22.5917 46.4001 25.28V38.72C46.4001 41.4082 46.4001 42.7524 45.8769 43.7791C45.4167 44.6823 44.6824 45.4166 43.7793 45.8768C42.7525 46.4 41.4084 46.4 38.7201 46.4H25.2801C22.5918 46.4 21.2477 46.4 20.2209 45.8768C19.3178 45.4166 18.5835 44.6823 18.1233 43.7791C17.6001 42.7524 17.6001 41.4082 17.6001 38.72V25.28C17.6001 22.5917 17.6001 21.2476 18.1233 20.2208C18.5835 19.3176 19.3178 18.5833 20.2209 18.1231C21.2477 17.6 22.5918 17.6 25.2801 17.6Z" stroke="#FDFDFD" stroke-width="3.2" stroke-linecap="round" stroke-linejoin="round"/>
</svg>
