<svg width="160" height="160" viewBox="0 0 160 160" fill="none" xmlns="http://www.w3.org/2000/svg">
<circle cx="80" cy="80" r="69.8871" fill="#C1CBFF"/>
<circle cx="80" cy="80" r="77.86" fill="#F3EBFF" stroke="white" stroke-width="4.27991"/>
<mask id="mask0_18653_1487" style="mask-type:alpha" maskUnits="userSpaceOnUse" x="4" y="4" width="152" height="152">
<circle cx="80.0001" cy="80" r="75.3047" fill="#F3EBFF"/>
</mask>
<g mask="url(#mask0_18653_1487)">
<path d="M75.1391 45.3973C76.994 44.0802 79.4785 44.0802 81.3334 45.3973L136.657 84.6815C138.688 86.1238 139.258 88.4057 138.733 90.3954V153.649C138.733 158.574 134.74 162.565 129.816 162.565H26.6557C21.7315 162.565 17.7398 158.574 17.7397 153.649V90.3964C17.2145 88.4064 17.7844 86.1241 19.8158 84.6815L75.1391 45.3973Z" fill="#4D64DE"/>
<mask id="mask1_18653_1487" style="mask-type:alpha" maskUnits="userSpaceOnUse" x="17" y="44" width="122" height="119">
<path d="M76.3556 45.2409C77.4779 44.4299 78.9941 44.4299 80.1163 45.2409L137.287 86.5583C137.838 86.9561 138.206 87.457 138.414 87.9968C138.616 88.3573 138.733 88.7728 138.733 89.2155V153.649C138.732 158.573 134.741 162.565 129.817 162.565H26.6554C21.7313 162.565 17.7396 158.573 17.7394 153.649V89.2155C17.7394 88.7743 17.855 88.3604 18.0558 88.0007C18.2637 87.4593 18.633 86.9571 19.1847 86.5583L76.3556 45.2409Z" fill="#6600EB"/>
</mask>
<g mask="url(#mask1_18653_1487)">
<rect x="34.7145" y="95.2065" width="88.1264" height="39.0068" fill="white"/>
<path d="M17.7394 163.069V94.8075L139.455 163.069H17.7394Z" fill="url(#paint0_linear_18653_1487)"/>
<path d="M139.455 163.069V94.8075L17.7395 163.069H139.455Z" fill="url(#paint1_linear_18653_1487)"/>
<path d="M73.3033 116.26C76.2299 113.781 80.5196 113.781 83.4462 116.26L133.358 158.536C138.934 163.26 135.594 172.37 128.286 172.37H28.4631C21.1556 172.37 17.8156 163.26 23.3917 158.536L73.3033 116.26Z" fill="#AC6EFC"/>
</g>
<path d="M34.7146 63.4233H105.721C115.176 63.4233 122.841 71.088 122.841 80.5429V96.2901H34.7146V63.4233Z" fill="white"/>
<path d="M34.7146 63.4233H105.721C115.176 63.4233 122.841 71.088 122.841 80.5429V96.2901H34.7146V63.4233Z" fill="white"/>
<path d="M34.092 63.3856C34.4656 63.3856 34.8361 63.399 35.2034 63.4236H104.421C104.678 63.4236 104.934 63.4301 105.188 63.4422C96.6687 63.841 89.8537 70.7555 89.6135 79.3152H33.2698V79.2772H17.7405C17.9879 70.4585 25.2135 63.3856 34.092 63.3856Z" fill="url(#paint2_linear_18653_1487)"/>
<path d="M100.809 104.56H55.6626V102.393H100.809V104.56ZM100.809 97.3359H55.6626V95.1689H100.809V97.3359ZM100.809 90.1123H55.6626V87.9453H100.809V90.1123Z" fill="url(#paint3_linear_18653_1487)"/>
</g>
<path d="M124.5 96C136.374 96 146 86.3741 146 74.5C146 62.6259 136.374 53 124.5 53C112.626 53 103 62.6259 103 74.5C103 86.3741 112.626 96 124.5 96Z" fill="url(#paint4_linear_18653_1487)"/>
<path fill-rule="evenodd" clip-rule="evenodd" d="M120.293 67.2486C119.885 66.8681 119.345 66.6609 118.787 66.6707C118.229 66.6806 117.696 66.9067 117.301 67.3014C116.907 67.696 116.681 68.2285 116.671 68.7866C116.661 69.3447 116.868 69.8848 117.249 70.2931L122.189 75.2333L117.249 80.1736C116.868 80.5819 116.661 81.122 116.671 81.6801C116.681 82.2382 116.907 82.7707 117.301 83.1653C117.696 83.56 118.229 83.7861 118.787 83.7959C119.345 83.8058 119.885 83.5986 120.293 83.2181L125.233 78.2779L130.174 83.2181C130.582 83.5986 131.122 83.8058 131.68 83.7959C132.238 83.7861 132.771 83.56 133.165 83.1653C133.56 82.7707 133.786 82.2382 133.796 81.6801C133.806 81.122 133.599 80.5819 133.218 80.1736L128.278 75.2333L133.218 70.2931C133.599 69.8848 133.806 69.3447 133.796 68.7866C133.786 68.2285 133.56 67.696 133.165 67.3014C132.771 66.9067 132.238 66.6806 131.68 66.6707C131.122 66.6609 130.582 66.8681 130.174 67.2486L125.233 72.1888L120.293 67.2486Z" fill="white"/>
<defs>
<linearGradient id="paint0_linear_18653_1487" x1="0.999999" y1="111.5" x2="57" y2="129" gradientUnits="userSpaceOnUse">
<stop stop-color="#1179FC"/>
<stop offset="1" stop-color="#9747FF"/>
</linearGradient>
<linearGradient id="paint1_linear_18653_1487" x1="156.194" y1="111.5" x2="100.194" y2="129" gradientUnits="userSpaceOnUse">
<stop stop-color="#1179FC"/>
<stop offset="1" stop-color="#9747FF"/>
</linearGradient>
<linearGradient id="paint2_linear_18653_1487" x1="62.5502" y1="63.3856" x2="62.5502" y2="79.2775" gradientUnits="userSpaceOnUse">
<stop stop-color="#B4C0FF"/>
<stop offset="1" stop-color="#DEE3FF"/>
</linearGradient>
<linearGradient id="paint3_linear_18653_1487" x1="55.6626" y1="104.56" x2="100.809" y2="104.56" gradientUnits="userSpaceOnUse">
<stop stop-color="#B5C0FF"/>
<stop offset="1" stop-color="#B5C0FF" stop-opacity="0"/>
</linearGradient>
<linearGradient id="paint4_linear_18653_1487" x1="124.5" y1="53" x2="124.5" y2="96" gradientUnits="userSpaceOnUse">
<stop stop-color="#E34C3D"/>
<stop offset="1" stop-color="#EB6051"/>
</linearGradient>
</defs>
</svg>
