<svg width="64" height="64" viewBox="0 0 64 64" fill="none" xmlns="http://www.w3.org/2000/svg">
<path d="M0 32C0 14.3269 14.3269 0 32 0C49.6731 0 64 14.3269 64 32C64 49.6731 49.6731 64 32 64C14.3269 64 0 49.6731 0 32Z" fill="#177EFF"/>
<path d="M25.6 46.4H38.4M32 40V46.4M23.68 40H40.32C43.0083 40 44.3524 40 45.3792 39.4768C46.2823 39.0166 47.0166 38.2823 47.4768 37.3791C48 36.3524 48 35.0082 48 32.32V25.28C48 22.5917 48 21.2476 47.4768 20.2208C47.0166 19.3176 46.2823 18.5833 45.3792 18.1231C44.3524 17.6 43.0083 17.6 40.32 17.6H23.68C20.9917 17.6 19.6476 17.6 18.6208 18.1231C17.7177 18.5833 16.9834 19.3176 16.5232 20.2208C16 21.2476 16 22.5917 16 25.28V32.32C16 35.0082 16 36.3524 16.5232 37.3791C16.9834 38.2823 17.7177 39.0166 18.6208 39.4768C19.6476 40 20.9917 40 23.68 40Z" stroke="#FDFDFD" stroke-width="3.2" stroke-linecap="round" stroke-linejoin="round"/>
</svg>
