<svg width="92" height="104" viewBox="0 0 92 104" fill="none" xmlns="http://www.w3.org/2000/svg">
<path fill-rule="evenodd" clip-rule="evenodd" d="M23.8352 78.4015L70.4594 62.3698C70.61 62.3182 70.7537 62.253 70.8919 62.1743C71.0287 62.0941 71.1572 62.0018 71.276 61.8986C71.3949 61.794 71.5026 61.6799 71.598 61.5549C71.6947 61.4286 71.7776 61.2969 71.8467 61.1556C71.9158 61.0144 71.971 60.8677 72.0111 60.717C72.0512 60.5648 72.0761 60.4114 72.0857 60.2552C72.094 60.099 72.0885 59.9428 72.0664 59.788C72.0443 59.6332 72.007 59.481 71.9558 59.333L51.3507 1.59645C51.2982 1.44841 51.2305 1.30716 51.149 1.17271C51.0674 1.03689 50.9735 0.91194 50.8671 0.795138C50.7607 0.678337 50.6432 0.572401 50.5161 0.478688C50.389 0.384975 50.2522 0.303486 50.1085 0.235578C49.9648 0.16767 49.8155 0.114703 49.6608 0.0753158C49.506 0.0372875 49.3499 0.0128408 49.1896 0.00333358C49.0307 -0.00481518 48.8718 0.00197543 48.7143 0.0237059C48.5567 0.0454364 48.402 0.0821068 48.2514 0.133717L1.62584 16.1586C1.47523 16.2116 1.33152 16.2768 1.19472 16.3569C1.05654 16.437 0.929421 16.5294 0.810587 16.6339C0.690372 16.7385 0.583975 16.8526 0.48725 16.9789C0.391907 17.1039 0.309 17.237 0.239911 17.3782C0.170822 17.5195 0.116932 17.6661 0.0768604 17.8169C0.0367888 17.969 0.0119164 18.1238 0.00362589 18.28C-0.00466498 18.4362 0.000862414 18.5924 0.0243526 18.7472C0.0464612 18.9021 0.0837692 19.0542 0.136277 19.2022L20.7345 76.9333C20.787 77.0814 20.8547 77.2226 20.9363 77.3571C21.0178 77.4929 21.1117 77.6179 21.2181 77.7347C21.3245 77.8515 21.442 77.9574 21.5691 78.0511C21.6962 78.1462 21.8317 78.2263 21.9767 78.2956C22.1205 78.3635 22.2697 78.4165 22.4231 78.4558C22.5778 78.4952 22.7353 78.5197 22.8943 78.5292C23.0545 78.5387 23.2121 78.5319 23.371 78.5102C23.5285 78.4898 23.6832 78.4531 23.8339 78.4015H23.8352Z" fill="#DC49A6"/>
<path fill-rule="evenodd" clip-rule="evenodd" d="M21.5925 78.0647L11.6381 20.1312C11.5912 19.8514 11.5718 19.5703 11.5801 19.2878C11.5898 19.0039 11.6257 18.7241 11.6907 18.4484C11.7556 18.1727 11.8468 17.9052 11.9656 17.6471C12.0845 17.3877 12.2268 17.1432 12.394 16.9123C12.5626 16.6815 12.7505 16.4696 12.9605 16.2754C13.1705 16.0812 13.3985 15.9087 13.6431 15.7579C13.8877 15.6072 14.1447 15.4822 14.4142 15.3803C14.6836 15.2798 14.9613 15.2051 15.246 15.159L53.9083 8.75934L71.9558 59.3343C72.0069 59.4824 72.0442 59.6331 72.0663 59.7893C72.0884 59.9441 72.0939 60.099 72.0856 60.2552C72.076 60.4127 72.0511 60.5662 72.011 60.7169C71.971 60.8691 71.9157 61.0157 71.8466 61.1556C71.7775 61.2969 71.6946 61.43 71.5979 61.5549C71.5025 61.6799 71.3947 61.7953 71.2759 61.8985C71.1571 62.0031 71.0286 62.0955 70.8918 62.1742C70.7536 62.2544 70.6099 62.3196 70.4593 62.3712L23.8351 78.4015C23.4552 78.5305 23.0669 78.5645 22.6703 78.5047C22.2737 78.4449 21.9145 78.2983 21.5911 78.0647H21.5925Z" fill="#7E2BEA"/>
<path fill-rule="evenodd" clip-rule="evenodd" d="M26.7424 82.0902L75.4531 74.0323C75.6106 74.0065 75.764 73.9657 75.9132 73.9087C76.0624 73.853 76.2047 73.7837 76.3402 73.7009C76.4756 73.6167 76.6013 73.5216 76.7174 73.4143C76.8335 73.307 76.9385 73.1888 77.0311 73.0612C77.1236 72.9335 77.2024 72.7977 77.2687 72.6551C77.3337 72.5125 77.3848 72.3644 77.4207 72.211C77.4566 72.0589 77.4774 71.904 77.4815 71.7465C77.487 71.5903 77.476 71.4341 77.4497 71.2806L67.0877 10.9554C67.0601 10.8006 67.0186 10.6512 66.962 10.5059C66.904 10.3592 66.8335 10.2207 66.7478 10.0876C66.6635 9.95582 66.5668 9.83223 66.4576 9.7195C66.3471 9.60542 66.2283 9.50356 66.0984 9.41256C65.9685 9.32156 65.8303 9.24415 65.6852 9.18031C65.5401 9.11648 65.3909 9.06623 65.2348 9.03092C65.08 8.99561 64.9225 8.97659 64.7636 8.97116C64.6047 8.96573 64.4458 8.97659 64.2896 9.00104L15.5707 17.059C15.4132 17.0848 15.2598 17.1269 15.1106 17.1826C14.9627 17.2383 14.8204 17.3089 14.685 17.3917C14.5496 17.4759 14.4238 17.571 14.3091 17.6783C14.1931 17.7856 14.0881 17.9037 13.9955 18.0314C13.9043 18.1591 13.8255 18.2949 13.7592 18.4375C13.6942 18.5801 13.6445 18.7281 13.6086 18.8816C13.5726 19.0337 13.5519 19.1886 13.5478 19.3448C13.5422 19.5009 13.5533 19.6571 13.5796 19.812L23.9374 80.1358C23.965 80.2906 24.0065 80.4414 24.0645 80.5867C24.1212 80.7334 24.193 80.8719 24.2773 81.005C24.363 81.1368 24.4597 81.2604 24.5703 81.3745C24.6794 81.4872 24.7996 81.5904 24.9295 81.68C25.0594 81.771 25.1976 81.8484 25.3427 81.9123C25.4891 81.9761 25.6384 82.0264 25.7945 82.0617C25.9493 82.097 26.1068 82.116 26.2671 82.1214C26.426 82.1255 26.5849 82.116 26.7424 82.0902Z" fill="#8B32FF"/>
<path fill-rule="evenodd" clip-rule="evenodd" d="M24.8245 81.6054V22.9724C24.8245 22.6804 24.8535 22.3911 24.9115 22.1046C24.9709 21.818 25.0566 21.5396 25.1713 21.2693C25.2846 20.999 25.4242 20.7437 25.59 20.5006C25.7558 20.2575 25.9437 20.032 26.1537 19.8256C26.3652 19.6191 26.5931 19.4344 26.8405 19.2728C27.0892 19.1098 27.3504 18.9727 27.6253 18.8613C27.9003 18.7486 28.1836 18.6644 28.4751 18.6073C28.7667 18.5489 29.0624 18.5204 29.3595 18.5204H68.3907L77.4497 71.2807C77.4759 71.4341 77.487 71.5903 77.4815 71.7465C77.4773 71.904 77.4566 72.0589 77.4207 72.211C77.3847 72.3645 77.3336 72.5125 77.2687 72.6551C77.2023 72.7977 77.1236 72.9335 77.031 73.0612C76.9384 73.1889 76.8334 73.3057 76.7173 73.4143C76.6013 73.5216 76.4755 73.6167 76.3401 73.7009C76.2047 73.7837 76.0624 73.853 75.9131 73.9087C75.7639 73.9657 75.6105 74.0065 75.4544 74.0323L26.7424 82.0902C26.4011 82.1473 26.0639 82.1337 25.7295 82.0495C25.3951 81.9653 25.0939 81.8159 24.8245 81.6054Z" fill="#7E2BEA"/>
<path fill-rule="evenodd" clip-rule="evenodd" d="M29.3595 86.5354H78.7597C78.9186 86.5354 79.0775 86.5191 79.2336 86.4879C79.3898 86.458 79.5418 86.4118 79.6896 86.3507C79.8361 86.291 79.977 86.2176 80.1097 86.1293C80.2423 86.0424 80.3639 85.9433 80.4772 85.8319C80.5905 85.7219 80.69 85.601 80.7799 85.4706C80.8683 85.3403 80.9429 85.2017 81.0037 85.0578C81.0645 84.9124 81.1115 84.763 81.1419 84.6096C81.1737 84.4561 81.1889 84.3013 81.1902 84.1437V22.9724C81.1889 22.8162 81.1737 22.66 81.1419 22.5066C81.1115 22.3531 81.0645 22.205 81.0037 22.0597C80.9429 21.9158 80.8669 21.7772 80.7785 21.6482C80.69 21.5178 80.5892 21.3969 80.4772 21.2869C80.3639 21.1756 80.241 21.0764 80.1083 20.9895C79.9757 20.9026 79.8361 20.8292 79.6882 20.7695C79.5418 20.7097 79.3898 20.6635 79.2336 20.6323C79.0761 20.6024 78.9186 20.5861 78.7597 20.5861H29.3595C29.1993 20.5861 29.0417 20.6024 28.8856 20.6323C28.7281 20.6635 28.5761 20.7084 28.4296 20.7681C28.2818 20.8292 28.1408 20.9026 28.0082 20.9895C27.8755 21.0764 27.7525 21.1756 27.6392 21.2856C27.5273 21.3969 27.425 21.5165 27.3366 21.6468C27.2482 21.7772 27.1722 21.9144 27.1114 22.0597C27.0492 22.2037 27.0036 22.3531 26.9718 22.5066C26.94 22.66 26.9235 22.8149 26.9235 22.9724V84.1437C26.9235 84.3013 26.94 84.4561 26.9704 84.6096C27.0022 84.7644 27.0492 84.9138 27.11 85.0578C27.1722 85.2031 27.2468 85.3403 27.3366 85.4706C27.425 85.601 27.5259 85.7219 27.6392 85.8333C27.7525 85.9433 27.8755 86.0424 28.0082 86.1307C28.1408 86.2176 28.2804 86.291 28.4282 86.3521C28.5761 86.4118 28.7281 86.458 28.8842 86.4893C29.0417 86.5191 29.1993 86.5354 29.3595 86.5354Z" fill="#DFEEF5"/>
<mask id="mask0_16500_662" style="mask-type:luminance" maskUnits="userSpaceOnUse" x="12" y="48" width="80" height="56">
<path d="M12.5197 48.7177H91.9998V104H12.5197V48.7177Z" fill="white"/>
</mask>
<g mask="url(#mask0_16500_662)">
<path fill-rule="evenodd" clip-rule="evenodd" d="M54.222 65.6267H82.6977C83.0017 65.628 83.3044 65.643 83.607 65.6729C83.9096 65.7027 84.2094 65.7476 84.5079 65.8073C84.8063 65.8657 85.1007 65.9391 85.3908 66.026C85.681 66.1129 85.967 66.2134 86.2475 66.3288C86.528 66.4429 86.803 66.5706 87.0697 66.7118C87.3378 66.8531 87.5989 67.0066 87.8504 67.1723C88.1033 67.338 88.3479 67.5159 88.5828 67.706C88.8163 67.8948 89.0415 68.0944 89.2571 68.3063C89.4712 68.5168 89.6758 68.7369 89.8678 68.9677C90.0613 69.1986 90.2423 69.4377 90.4109 69.6862C90.5808 69.9334 90.737 70.1887 90.8807 70.4522C91.0244 70.7143 91.1543 70.9832 91.2717 71.2589C91.3878 71.5347 91.49 71.8144 91.5798 72.101C91.6683 72.3862 91.7429 72.6741 91.8023 72.9675C91.8631 73.2595 91.9087 73.5542 91.9391 73.8503C91.9695 74.1477 91.9847 74.4452 91.9861 74.744V94.8827C91.9861 95.1815 91.9695 95.4789 91.9391 95.7764C91.9087 96.0725 91.8631 96.3672 91.8037 96.6605C91.7429 96.9525 91.6697 97.2418 91.5798 97.527C91.4914 97.8122 91.3892 98.092 91.2717 98.3677C91.1556 98.6434 91.0258 98.9124 90.882 99.1758C90.7383 99.438 90.5822 99.6933 90.4122 99.9418C90.2437 100.19 90.0627 100.429 89.8692 100.66C89.6771 100.89 89.4726 101.111 89.2585 101.322C89.0429 101.532 88.8177 101.733 88.5828 101.922C88.3479 102.112 88.1047 102.289 87.8518 102.456C87.5989 102.621 87.3392 102.775 87.0711 102.916C86.803 103.056 86.5294 103.184 86.2475 103.299C85.967 103.413 85.6824 103.514 85.3908 103.602C85.1007 103.689 84.8063 103.761 84.5079 103.821C84.2094 103.879 83.9096 103.924 83.607 103.954C83.3044 103.984 83.0017 103.999 82.6977 104H22.0015C21.6975 103.999 21.3935 103.984 21.0923 103.954C20.7897 103.923 20.4885 103.879 20.1914 103.819C19.8929 103.761 19.5986 103.688 19.3084 103.601C19.0169 103.514 18.7322 103.412 18.4517 103.298C18.1712 103.184 17.8962 103.056 17.6282 102.915C17.3601 102.774 17.1003 102.62 16.8475 102.454C16.5946 102.289 16.3514 102.111 16.1165 101.921C15.8816 101.732 15.6564 101.532 15.4422 101.32C15.2266 101.11 15.0235 100.89 14.8301 100.659C14.6366 100.428 14.4556 100.189 14.287 99.9405C14.1184 99.6933 13.9623 99.438 13.8186 99.1745C13.6749 98.9124 13.545 98.6434 13.4276 98.3677C13.3101 98.092 13.2079 97.8122 13.1194 97.5257C13.031 97.2405 12.9564 96.9525 12.8956 96.6592C12.8362 96.3672 12.7906 96.0725 12.7602 95.7764C12.7284 95.4789 12.7132 95.1815 12.7118 94.8827V56.5162C12.7132 56.2703 12.7256 56.0259 12.7505 55.7814C12.7754 55.5369 12.8127 55.2952 12.861 55.0548C12.9108 54.8144 12.9716 54.5767 13.0448 54.3418C13.118 54.1068 13.2023 53.8759 13.2977 53.6505C13.3944 53.4236 13.5008 53.2023 13.6182 52.985C13.7371 52.769 13.8656 52.5599 14.0038 52.3548C14.1433 52.1511 14.2926 51.9541 14.4501 51.7653C14.609 51.5752 14.7776 51.3932 14.953 51.2207C15.1299 51.0469 15.3151 50.8825 15.5085 50.7264C15.702 50.5715 15.9023 50.4248 16.1096 50.289C16.3182 50.1519 16.5324 50.0255 16.7521 49.9101C16.9732 49.7947 17.1984 49.6887 17.4292 49.595C17.66 49.5013 17.8949 49.4184 18.1339 49.3465C18.373 49.2745 18.6148 49.2147 18.8607 49.1672C19.1053 49.1183 19.3526 49.083 19.6014 49.0572C19.8501 49.0327 20.0988 49.0205 20.3489 49.0205H31.2539C33.9387 49.0205 35.7655 50.6421 37.6903 52.4838L47.787 62.1688C49.7063 64.0037 51.5399 65.6253 54.2247 65.6253L54.222 65.6267Z" fill="#FFB955"/>
</g>
<path fill-rule="evenodd" clip-rule="evenodd" d="M45.2405 42.8586H34.9821C34.1986 42.8586 33.7095 42.2257 33.8186 41.461L34.3009 38.2055C34.5966 36.1982 35.9839 34.5236 38.0524 34.5236H42.1715C44.2414 34.5236 45.6343 36.1982 45.93 38.2055L46.4053 41.461C46.5145 42.2257 46.0253 42.8586 45.2418 42.8586H45.2405Z" fill="#0091CA"/>
<path fill-rule="evenodd" clip-rule="evenodd" d="M40.1154 33.2387C40.3627 33.2373 40.6087 33.2142 40.8518 33.1653C41.0937 33.1178 41.3299 33.0472 41.5593 32.9535C41.7873 32.8598 42.0056 32.7457 42.2115 32.6099C42.4174 32.4754 42.6067 32.3206 42.7822 32.1494C42.9577 31.977 43.1138 31.7895 43.2506 31.5872C43.3888 31.3848 43.5049 31.1702 43.5988 30.9461C43.6928 30.7207 43.7646 30.4884 43.813 30.2507C43.8614 30.0117 43.8849 29.7713 43.8849 29.5268C43.8835 29.2837 43.86 29.0433 43.8102 28.8043C43.7619 28.5666 43.69 28.3344 43.5947 28.1103C43.5007 27.8848 43.3833 27.6716 43.2451 27.4692C43.1083 27.2682 42.9508 27.0808 42.7753 26.9083C42.5998 26.7372 42.4091 26.5837 42.2032 26.4493C41.9973 26.3134 41.779 26.1994 41.5496 26.107C41.3217 26.0147 41.0854 25.944 40.8422 25.8965C40.599 25.849 40.353 25.8259 40.1057 25.8259C39.857 25.8259 39.6124 25.8503 39.3692 25.8978C39.126 25.9454 38.8897 26.016 38.6603 26.1097C38.4323 26.2021 38.214 26.3162 38.0081 26.452C37.8022 26.5864 37.6116 26.7413 37.4375 26.9124C37.262 27.0849 37.1058 27.2723 36.9677 27.4747C36.8295 27.677 36.7134 27.8903 36.6194 28.1157C36.5241 28.3398 36.4522 28.5721 36.4053 28.8097C36.3569 29.0488 36.332 29.2905 36.332 29.5336C36.3334 29.7767 36.3583 30.0171 36.4066 30.2562C36.4564 30.4952 36.5282 30.7261 36.6236 30.9515C36.7189 31.1756 36.835 31.3889 36.9732 31.5912C37.1114 31.7936 37.2689 31.981 37.4444 32.1522C37.6199 32.3246 37.8105 32.4781 38.0164 32.6126C38.2223 32.7484 38.4406 32.8625 38.67 32.9562C38.898 33.0485 39.1343 33.1192 39.3775 33.1667C39.6207 33.2142 39.8666 33.2387 40.1154 33.2387Z" fill="#FBBD80"/>
<path d="M73.7714 32.883C73.8681 32.883 73.9649 32.8925 74.0602 32.9115C74.1569 32.9292 74.2495 32.9577 74.3393 32.9943C74.4305 33.031 74.5162 33.0758 74.5963 33.1288C74.6779 33.1818 74.7525 33.2429 74.8216 33.3108C74.8907 33.3787 74.9528 33.452 75.0067 33.5322C75.0606 33.611 75.1076 33.6952 75.1449 33.7834C75.1822 33.8731 75.2098 33.9641 75.2292 34.0578C75.2485 34.1515 75.2582 34.2466 75.2582 34.343C75.2582 34.4381 75.2485 34.5331 75.2292 34.6269C75.2098 34.7206 75.1822 34.8129 75.1449 34.9012C75.1076 34.9895 75.0606 35.0737 75.0067 35.1525C74.9528 35.2326 74.8907 35.3059 74.8216 35.3738C74.7525 35.4417 74.6779 35.5029 74.5963 35.5558C74.5162 35.6088 74.4305 35.6536 74.3393 35.6903C74.2495 35.727 74.1569 35.7555 74.0602 35.7731C73.9649 35.7921 73.8681 35.8017 73.7714 35.8017H53.4799C53.3832 35.8017 53.2865 35.7921 53.1897 35.7731C53.0944 35.7555 53.0018 35.727 52.9106 35.6903C52.8208 35.6536 52.7351 35.6088 52.6536 35.5558C52.5735 35.5029 52.4975 35.4417 52.4284 35.3738C52.3593 35.3059 52.2985 35.2326 52.2446 35.1525C52.1893 35.0737 52.1437 34.9895 52.1064 34.9012C52.0691 34.8129 52.0415 34.7206 52.0221 34.6269C52.0028 34.5331 51.9931 34.4381 51.9931 34.343C51.9931 34.2466 52.0028 34.1515 52.0221 34.0578C52.0415 33.9641 52.0691 33.8731 52.1064 33.7834C52.1437 33.6952 52.1893 33.611 52.2446 33.5322C52.2985 33.452 52.3593 33.3787 52.4284 33.3108C52.4975 33.2429 52.5735 33.1818 52.6536 33.1288C52.7351 33.0758 52.8208 33.031 52.9106 32.9943C53.0018 32.9577 53.0944 32.9292 53.1897 32.9115C53.2865 32.8925 53.3832 32.883 53.4799 32.883H73.7714ZM73.7714 27.0103C73.8681 27.0103 73.9649 27.0198 74.0616 27.0388C74.1569 27.0579 74.2509 27.085 74.3407 27.1217C74.4319 27.1584 74.5176 27.2032 74.5991 27.2575C74.6806 27.3105 74.7552 27.3702 74.8243 27.4381C74.8934 27.506 74.9556 27.5807 75.0095 27.6609C75.0648 27.7396 75.1104 27.8252 75.1477 27.9135C75.185 28.0018 75.2126 28.0928 75.232 28.1878C75.2513 28.2815 75.261 28.3766 75.261 28.473C75.261 28.5695 75.2513 28.6645 75.232 28.7583C75.2126 28.852 75.185 28.9443 75.1477 29.0326C75.1104 29.1209 75.0648 29.2051 75.0095 29.2852C74.9556 29.3654 74.8934 29.4387 74.8243 29.5066C74.7552 29.5745 74.6806 29.6356 74.5991 29.6886C74.5176 29.7429 74.4319 29.7877 74.3407 29.8244C74.2509 29.8611 74.1569 29.8882 74.0616 29.9073C73.9649 29.9263 73.8681 29.9358 73.7714 29.9358H53.4799C53.3818 29.9358 53.2851 29.9263 53.1897 29.9073C53.093 29.8882 53.0004 29.8611 52.9106 29.8244C52.8194 29.7877 52.7338 29.7429 52.6522 29.6886C52.5707 29.6356 52.4961 29.5745 52.427 29.5066C52.3579 29.4387 52.2957 29.3654 52.2418 29.2852C52.1866 29.2051 52.141 29.1209 52.1037 29.0326C52.0664 28.9443 52.0373 28.852 52.0194 28.7583C52 28.6645 51.9904 28.5695 51.9904 28.473C51.9904 28.3766 52 28.2815 52.0194 28.1878C52.0373 28.0928 52.0664 28.0018 52.1037 27.9135C52.141 27.8252 52.1866 27.7396 52.2418 27.6609C52.2957 27.5807 52.3579 27.506 52.427 27.4381C52.4961 27.3702 52.5707 27.3105 52.6522 27.2575C52.7338 27.2032 52.8194 27.1584 52.9106 27.1217C53.0004 27.085 53.093 27.0579 53.1897 27.0388C53.2851 27.0198 53.3818 27.0103 53.4799 27.0103H73.7714ZM73.7714 38.7502C73.8681 38.7502 73.9649 38.7597 74.0616 38.7774C74.1569 38.7964 74.2509 38.8249 74.3407 38.8616C74.4319 38.8982 74.5176 38.9431 74.5991 38.996C74.6806 39.049 74.7552 39.1101 74.8243 39.178C74.8934 39.2459 74.9556 39.3193 75.0095 39.3994C75.0648 39.4795 75.1104 39.5637 75.1477 39.652C75.185 39.7417 75.2126 39.8327 75.232 39.9264C75.2513 40.0214 75.261 40.1165 75.261 40.2129C75.261 40.308 75.2513 40.4031 75.232 40.4982C75.2126 40.5919 75.185 40.6829 75.1477 40.7725C75.1104 40.8608 75.0648 40.945 75.0095 41.0251C74.9556 41.1053 74.8934 41.1786 74.8243 41.2465C74.7552 41.3144 74.6806 41.3755 74.5991 41.4285C74.5176 41.4815 74.4319 41.5263 74.3407 41.563C74.2509 41.5996 74.1569 41.6281 74.0616 41.6472C73.9649 41.6648 73.8681 41.6743 73.7714 41.6743H53.4799C53.3818 41.6743 53.2851 41.6648 53.1897 41.6472C53.093 41.6281 53.0004 41.5996 52.9106 41.563C52.8194 41.5263 52.7338 41.4815 52.6522 41.4285C52.5707 41.3755 52.4961 41.3144 52.427 41.2465C52.3579 41.1786 52.2957 41.1053 52.2418 41.0251C52.1866 40.945 52.141 40.8608 52.1037 40.7725C52.0664 40.6829 52.0373 40.5919 52.0194 40.4982C52 40.4031 51.9904 40.308 51.9904 40.2129C51.9904 40.1165 52 40.0214 52.0194 39.9264C52.0373 39.8327 52.0664 39.7417 52.1037 39.652C52.141 39.5637 52.1866 39.4795 52.2418 39.3994C52.2957 39.3193 52.3579 39.2459 52.427 39.178C52.4961 39.1101 52.5707 39.049 52.6522 38.996C52.7338 38.9431 52.8194 38.8982 52.9106 38.8616C53.0004 38.8249 53.093 38.7964 53.1897 38.7774C53.2851 38.7597 53.3818 38.7502 53.4799 38.7502H73.7714Z" fill="#C4D2D8"/>
<path d="M36.3569 87.9208C36.4536 87.9208 36.5503 87.9303 36.647 87.9493C36.7424 87.9683 36.835 87.9968 36.9262 88.0335C37.016 88.0702 37.1017 88.115 37.1832 88.168C37.2647 88.2223 37.3393 88.282 37.4084 88.35C37.4775 88.4179 37.5383 88.4926 37.5936 88.5727C37.6475 88.6515 37.6931 88.7357 37.7304 88.8253C37.7677 88.9136 37.7967 89.0046 37.8147 89.0983C37.834 89.1934 37.8437 89.2884 37.8437 89.3835C37.8437 89.4799 37.834 89.575 37.8147 89.6687C37.7967 89.7624 37.7677 89.8534 37.7304 89.9431C37.6931 90.0314 37.6475 90.1156 37.5936 90.1957C37.5383 90.2745 37.4775 90.3492 37.4084 90.4171C37.3393 90.485 37.2647 90.5447 37.1832 90.5991C37.1017 90.652 37.016 90.6968 36.9262 90.7335C36.835 90.7715 36.7424 90.7987 36.647 90.8177C36.5503 90.8367 36.4536 90.8462 36.3569 90.8462H22.0375C21.9393 90.8462 21.8426 90.8367 21.7473 90.8177C21.6506 90.7987 21.558 90.7715 21.4682 90.7335C21.377 90.6968 21.2913 90.652 21.2111 90.5991C21.1296 90.5447 21.055 90.485 20.9859 90.4171C20.9168 90.3492 20.8546 90.2745 20.8008 90.1957C20.7469 90.1156 20.6999 90.0314 20.6626 89.9431C20.6253 89.8534 20.5976 89.7624 20.5783 89.6687C20.5589 89.575 20.5493 89.4799 20.5493 89.3835C20.5493 89.2884 20.5589 89.1934 20.5783 89.0983C20.5976 89.0046 20.6253 88.9136 20.6626 88.8253C20.6999 88.7357 20.7469 88.6515 20.8008 88.5727C20.8546 88.4926 20.9168 88.4179 20.9859 88.35C21.055 88.282 21.1296 88.2223 21.2111 88.1693C21.2913 88.115 21.377 88.0702 21.4682 88.0335C21.558 87.9968 21.6506 87.9683 21.7473 87.9493C21.8426 87.9303 21.9393 87.9208 22.0375 87.9208H36.3569ZM61.7319 94.8121C61.8301 94.8121 61.9268 94.8216 62.0221 94.8406C62.1188 94.8596 62.2114 94.8868 62.3026 94.9234C62.3924 94.9601 62.4781 95.0049 62.5596 95.0592C62.6412 95.1122 62.7158 95.172 62.7849 95.2399C62.854 95.3078 62.9161 95.3825 62.9714 95.4626C63.0253 95.5414 63.0709 95.6256 63.1082 95.7152C63.1455 95.8035 63.1745 95.8945 63.1939 95.9896C63.2118 96.0833 63.2215 96.1784 63.2215 96.2748C63.2215 96.3712 63.2118 96.4663 63.1939 96.56C63.1745 96.6537 63.1455 96.7461 63.1082 96.8344C63.0709 96.9226 63.0253 97.0068 62.9714 97.087C62.9161 97.1671 62.854 97.2404 62.7849 97.3083C62.7158 97.3763 62.6412 97.4374 62.5596 97.4903C62.4781 97.5447 62.3924 97.5895 62.3026 97.6262C62.2114 97.6628 62.1188 97.69 62.0221 97.709C61.9268 97.728 61.8301 97.7375 61.7319 97.7375H22.0375C21.9393 97.7375 21.8426 97.728 21.7459 97.709C21.6506 97.69 21.5566 97.6628 21.4668 97.6262C21.377 97.5895 21.2899 97.5447 21.2098 97.4903C21.1282 97.4374 21.0522 97.3763 20.9832 97.3083C20.9141 97.2404 20.8519 97.1671 20.798 97.087C20.7441 97.0068 20.6971 96.9226 20.6598 96.8344C20.6225 96.7461 20.5949 96.6537 20.5755 96.56C20.5562 96.4663 20.5465 96.3712 20.5465 96.2748C20.5465 96.1784 20.5562 96.0833 20.5755 95.9896C20.5949 95.8945 20.6225 95.8035 20.6598 95.7152C20.6971 95.6256 20.7441 95.5414 20.798 95.4626C20.8519 95.3825 20.9141 95.3078 20.9832 95.2399C21.0522 95.172 21.1282 95.1122 21.2098 95.0579C21.2899 95.0049 21.377 94.9601 21.4668 94.9234C21.5566 94.8868 21.6506 94.8596 21.7459 94.8406C21.8426 94.8216 21.9393 94.8121 22.0375 94.8121H61.7319Z" fill="#E6A74E"/>
<mask id="mask1_16500_662" style="mask-type:luminance" maskUnits="userSpaceOnUse" x="14" y="66" width="78" height="38">
<path d="M14.2885 66.102H92V104H14.2885V66.102Z" fill="white"/>
</mask>
<g mask="url(#mask1_16500_662)">
<path fill-rule="evenodd" clip-rule="evenodd" d="M88.1558 91.911C88.1558 92.2098 88.1392 92.5073 88.1088 92.8047C88.0784 93.1008 88.0328 93.3955 87.9734 93.6875C87.9126 93.9809 87.838 94.2688 87.7496 94.554C87.6611 94.8392 87.5575 95.1203 87.4414 95.3961C87.324 95.6704 87.1941 95.9407 87.0504 96.2028C86.9067 96.4663 86.7505 96.7216 86.582 96.9688C86.412 97.2173 86.231 97.4564 86.0389 97.6873C85.8455 97.9168 85.641 98.1382 85.4268 98.3487C85.2112 98.5606 84.9874 98.7602 84.7525 98.949C84.5176 99.1391 84.273 99.317 84.0201 99.4827C83.7686 99.6484 83.5075 99.8019 83.2408 99.9432C82.9727 100.083 82.6978 100.212 82.4173 100.326C82.1368 100.44 81.8507 100.542 81.5606 100.629C81.2704 100.716 80.9761 100.789 80.6776 100.848C80.3791 100.907 80.0793 100.951 79.7767 100.982C79.4741 101.012 79.1715 101.027 78.8675 101.028H18.1712C16.9083 101.03 15.6992 100.785 14.5399 100.294C14.971 100.868 15.4643 101.384 16.0184 101.845C16.5725 102.305 17.1736 102.696 17.8217 103.017C18.4697 103.339 19.1468 103.583 19.8529 103.749C20.559 103.914 21.2747 103.999 22.0015 104H82.6978C83.0018 103.999 83.3044 103.984 83.607 103.954C83.9096 103.924 84.2094 103.879 84.5079 103.821C84.8064 103.761 85.1007 103.689 85.3909 103.602C85.6824 103.514 85.9671 103.413 86.2476 103.299C86.5294 103.184 86.803 103.056 87.0711 102.916C87.3392 102.775 87.599 102.621 87.8518 102.456C88.1047 102.29 88.3479 102.112 88.5828 101.922C88.8177 101.733 89.0429 101.532 89.2585 101.322C89.4726 101.111 89.6772 100.89 89.8692 100.66C90.0627 100.429 90.2437 100.19 90.4123 99.9418C90.5822 99.6933 90.7384 99.4379 90.8821 99.1758C91.0258 98.9123 91.1557 98.6434 91.2717 98.3677C91.3892 98.092 91.4914 97.8122 91.5799 97.527C91.6697 97.2418 91.7429 96.9525 91.8037 96.6605C91.8631 96.3671 91.9087 96.0724 91.9391 95.7763C91.9695 95.4789 91.9861 95.1815 91.9861 94.8827V74.7439C91.9847 74.2998 91.9516 73.8571 91.8839 73.4184C91.8175 72.9783 91.718 72.5464 91.5882 72.1213C91.4569 71.6962 91.2952 71.282 91.1032 70.88C90.9097 70.478 90.6886 70.0923 90.4399 69.7215C90.1898 69.3507 89.9134 69.0003 89.6122 68.6689C89.3096 68.3375 88.9849 68.0306 88.6381 67.7454C88.2898 67.4615 87.9237 67.2035 87.5382 66.9712C87.1513 66.739 86.7505 66.5352 86.3346 66.36C86.9274 67.1423 87.3792 67.9953 87.6915 68.9215C88.0024 69.8464 88.1572 70.7971 88.1558 71.7709V91.911Z" fill="#E6A74E"/>
</g>
<path fill-rule="evenodd" clip-rule="evenodd" d="M78.7169 22.9724V65.6266H81.1903V22.9724C81.1889 22.8162 81.1737 22.66 81.142 22.5066C81.1116 22.3531 81.0646 22.205 81.0038 22.0597C80.943 21.9158 80.867 21.7772 80.7786 21.6482C80.6901 21.5178 80.5893 21.3969 80.4773 21.2869C80.364 21.1756 80.241 21.0764 80.1084 20.9895C79.9757 20.9026 79.8362 20.8292 79.6883 20.7695C79.5419 20.7097 79.3899 20.6635 79.2337 20.6323C79.0762 20.6024 78.9187 20.5861 78.7598 20.5861H76.2864C76.4453 20.5861 76.6042 20.6024 76.7603 20.6323C76.9165 20.6635 77.0685 20.7097 77.2149 20.7695C77.3628 20.8292 77.5023 20.9026 77.635 20.9895C77.7676 21.0764 77.8906 21.1756 78.0039 21.2869C78.1159 21.3969 78.2167 21.5178 78.3052 21.6482C78.395 21.7772 78.4696 21.9158 78.5304 22.0597C78.5912 22.205 78.6382 22.3531 78.67 22.5066C78.7004 22.66 78.7169 22.8162 78.7169 22.9724Z" fill="#C4D2D8"/>
<path fill-rule="evenodd" clip-rule="evenodd" d="M42.333 29.5337C42.3344 29.7443 42.3164 29.9534 42.2791 30.1626C42.2432 30.3704 42.1893 30.5741 42.1175 30.7724C42.0456 30.972 41.9572 31.1635 41.8522 31.3482C41.7471 31.5316 41.6269 31.7068 41.4915 31.8698C41.3561 32.0341 41.2069 32.1862 41.0452 32.3247C40.8835 32.4633 40.7108 32.5882 40.527 32.6982C40.3433 32.8083 40.1512 32.902 39.9522 32.9807C39.7519 33.0582 39.546 33.1193 39.3359 33.1627C39.5929 33.2157 39.8513 33.2415 40.1139 33.2388C40.3612 33.2374 40.6058 33.2116 40.8462 33.1641C41.088 33.1152 41.3229 33.0432 41.5509 32.9495C41.7775 32.8558 41.9945 32.7403 42.199 32.6059C42.4035 32.4701 42.5928 32.3166 42.7655 32.1441C42.9396 31.9716 43.0944 31.7856 43.2312 31.5832C43.368 31.3822 43.4827 31.169 43.5766 30.9449C43.672 30.7208 43.7424 30.4912 43.7908 30.2536C43.8378 30.0159 43.8627 29.7755 43.8627 29.5337C43.8627 29.2906 43.8378 29.0516 43.7908 28.8139C43.7424 28.5762 43.672 28.3454 43.5766 28.1213C43.4827 27.8972 43.368 27.6853 43.2312 27.4829C43.0944 27.2806 42.9396 27.0945 42.7655 26.922C42.5928 26.7509 42.4035 26.5974 42.199 26.4616C41.9945 26.3258 41.7775 26.2117 41.5509 26.118C41.3229 26.0229 41.088 25.9523 40.8462 25.9034C40.6058 25.8545 40.3612 25.8287 40.1139 25.8273C39.8527 25.8287 39.5929 25.8545 39.3359 25.9047C39.546 25.9482 39.7519 26.0093 39.9508 26.0867C40.1512 26.1655 40.3419 26.2592 40.5257 26.3692C40.7094 26.4806 40.8822 26.6042 41.0438 26.7441C41.2055 26.8826 41.3533 27.0347 41.4888 27.1977C41.6242 27.362 41.7444 27.5359 41.8494 27.7206C41.9558 27.904 42.0442 28.0955 42.1161 28.2951C42.1879 28.4934 42.2418 28.6971 42.2778 28.9049C42.3151 29.1127 42.333 29.3219 42.333 29.5337Z" fill="#E2AA73"/>
<path fill-rule="evenodd" clip-rule="evenodd" d="M45.9286 38.2055C45.6329 36.1981 44.24 34.5222 42.1715 34.5222H40.6156C42.6841 34.5222 44.077 36.1981 44.3727 38.2055L44.848 41.461C44.9572 42.2243 44.468 42.8585 43.6845 42.8585H45.2404C46.0253 42.8585 46.5131 42.2243 46.4053 41.461L45.9286 38.2055Z" fill="#0083B6"/>
</svg>
